PathFileType	4	(X/Y/Z)	s07c0401.trc
DataRate	CameraRate	NumFrames	NumMarkers	Units	OrigDataRate	OrigDataStartFrame	OrigNumFrames
200	200	6	48	mm	200	1750	2000
Frame#	Time	racr			lacr			c7			jug			rlel			rdr			llel			ldr			s2			lic			ric			lasi			rasi			rpsi			lpsi			rgt			lgt			rth1			rth2			rth3			rth4			rlfc			rmfc			rsh1			rsh2			rsh3			rsh4			rlmal			rcal			rtoe			rmt5			lth1			lth2			lth4			lth3			llfc			lmfc			lsh1			lsh2			lsh3			lsh4			llmal			lcal			ltoe			lmt5			SBIKE			LBIKE			RBIKE			
		X1	Y1	Z1	X2	Y2	Z2	X3	Y3	Z3	X4	Y4	Z4	X5	Y5	Z5	X6	Y6	Z6	X7	Y7	Z7	X8	Y8	Z8	X9	Y9	Z9	X10	Y10	Z10	X11	Y11	Z11	X12	Y12	Z12	X13	Y13	Z13	X14	Y14	Z14	X15	Y15	Z15	X16	Y16	Z16	X17	Y17	Z17	X18	Y18	Z18	X19	Y19	Z19	X20	Y20	Z20	X21	Y21	Z21	X22	Y22	Z22	X23	Y23	Z23	X24	Y24	Z24	X25	Y25	Z25	X26	Y26	Z26	X27	Y27	Z27	X28	Y28	Z28	X29	Y29	Z29	X30	Y30	Z30	X31	Y31	Z31	X32	Y32	Z32	X33	Y33	Z33	X34	Y34	Z34	X35	Y35	Z35	X36	Y36	Z36	X37	Y37	Z37	X38	Y38	Z38	X39	Y39	Z39	X40	Y40	Z40	X41	Y41	Z41	X42	Y42	Z42	X43	Y43	Z43	X44	Y44	Z44	X45	Y45	Z45	X46	Y46	Z46	X47	Y47	Z47	X48	Y48	Z48	
1750	8.7500	717.913050	1385.463963	-44.149610	718.526004	1417.997493	-362.295817	712.354982	1451.111833	-200.182771	658.313298	1315.972140	-215.844899	484.540005	1116.426754	31.608364	691.358679	942.929146	-63.504135	521.639233	1162.802179	-510.847149	690.583647	934.800880	-438.273588	115.229397	1292.052905	-229.977912	283.813173	1311.755926	-372.753594	290.284282	1297.503953	-81.903938	295.942957	1227.168851	-350.995897	295.278649	1245.710696	-101.932913	149.504446	1324.475919	-179.686208	163.505644	1332.046421	-287.239615	218.536290	1186.243246	-40.725966	191.573040	1165.678496	-402.041864	326.781362	1079.984321	-47.063714	398.173910	1030.819832	-60.929226	441.385724	958.634503	-67.090825	422.319867	1056.730806	-80.614918	514.975008	835.317465	-108.799602	495.629850	825.248899	-212.386569	436.459471	715.990431	-79.203898	401.572856	635.207288	-96.176537	335.796077	579.244170	-84.749772	411.402911	630.899878	-134.822686	250.622681	467.226170	-79.015241	173.196565	438.828674	-103.333886	455.820648	374.872979	-132.350009	378.124993	355.571231	-58.250798	228.425347	1046.737861	-415.738407	281.465932	976.607710	-420.841713	314.566270	988.920257	-410.818573	292.594429	888.555076	-422.929488	335.252409	717.579000	-400.122206	328.112607	700.136624	-306.157790	222.143488	621.294011	-418.056666	177.306070	550.091923	-398.276785	97.794868	506.924235	-400.649332	184.878450	548.102036	-356.486481	-5.423189	421.850133	-395.322561	-79.003648	436.483038	-358.722890	123.779769	229.935966	-360.572965	45.475041	264.560544	-421.895397	-262.867632	976.451426	-235.572018	-82.474163	79.362695	-435.047888	-82.485628	79.195641	-37.513875	
1751	8.7550	717.354695	1386.009637	-45.040684	716.586266	1419.050656	-362.570938	710.666568	1452.073771	-200.608517	656.830534	1316.686200	-216.180318	484.319859	1117.020097	32.607353	691.403331	942.821030	-63.347404	521.177181	1162.720687	-510.878785	690.625401	934.232968	-435.696625	113.715294	1292.048912	-229.375015	282.265302	1312.816956	-371.714317	288.912794	1297.344718	-80.955428	294.665764	1228.382319	-350.045116	293.875575	1245.300308	-100.855230	147.897187	1324.319038	-178.734105	161.835898	1332.441161	-286.301224	216.265485	1185.094927	-40.395987	191.344601	1166.771162	-402.040402	322.906988	1077.210840	-45.172102	394.011336	1026.525815	-60.067877	435.875592	953.875175	-66.111194	418.645752	1052.222885	-79.231256	508.217384	829.530059	-107.410402	489.376658	819.432786	-210.926074	431.553410	708.765747	-77.994296	398.659119	627.164162	-95.164785	333.992878	569.767838	-84.323013	408.773412	623.033358	-133.807824	251.391888	455.721294	-78.821871	174.134973	426.529469	-102.989343	457.466343	365.265583	-132.218958	379.703924	347.342480	-55.509805	230.281764	1048.715826	-415.255335	284.848444	979.639537	-420.196740	317.294859	992.802064	-410.686942	297.443346	891.587358	-423.015724	342.944096	721.248716	-400.723954	336.355914	703.785687	-306.835213	228.165529	626.546123	-418.315985	181.883761	556.286048	-398.524211	101.479371	514.888620	-400.881803	189.491833	554.213181	-356.798372	-3.376126	432.489253	-395.880119	-76.623645	448.389936	-358.480642	121.358945	237.671529	-360.750566	43.804649	274.125235	-421.960158	-262.843509	976.457601	-235.552595	-82.484451	79.372092	-435.046609	-82.483038	79.194470	-37.523444	
1752	8.7600	716.716938	1386.561534	-45.980847	714.537551	1420.107527	-362.963713	708.949063	1453.106387	-201.095554	655.322454	1317.512482	-216.756436	484.530095	1117.154827	32.885104	691.343931	942.655648	-63.387839	520.639929	1162.573118	-510.926327	690.792648	935.014360	-438.171723	112.203980	1291.899854	-228.752153	280.606259	1313.939539	-370.745500	287.523992	1296.977300	-80.036566	293.414345	1229.483898	-349.162639	292.544739	1244.903192	-99.842129	146.276557	1323.949988	-177.832020	160.139106	1332.691738	-285.228133	214.201743	1183.782129	-40.181183	191.163511	1167.753354	-402.039023	319.441233	1073.875406	-44.571183	389.666398	1021.887153	-59.125021	430.064675	948.498861	-64.952398	414.774567	1047.215880	-77.755893	501.069019	823.349066	-105.944837	482.786027	813.141951	-209.488975	426.319038	701.127844	-76.663364	395.037304	618.264661	-94.488541	331.721313	560.199585	-83.535572	405.502018	615.084801	-132.701663	251.480972	444.276418	-78.466254	174.799133	414.290135	-102.935817	458.632164	355.768973	-132.032119	381.279002	335.019865	-57.841445	232.140033	1050.610835	-414.840503	288.073458	982.571109	-419.873360	320.232650	996.418147	-410.051478	302.373636	894.808509	-423.111514	350.661780	725.221654	-401.857820	344.356862	707.508263	-307.412038	234.016179	631.978007	-418.285436	186.640672	562.580445	-398.809217	105.328817	522.997768	-401.081916	193.803978	560.591531	-356.523839	-1.071461	442.667655	-395.632819	-73.860348	460.746279	-358.533663	119.496502	245.773540	-360.962509	42.657575	283.922112	-422.528855	-262.831314	976.447320	-235.549193	-82.468627	79.368716	-435.042444	-82.488388	79.189773	-37.506390	
1753	8.7650	716.132291	1387.220455	-46.826294	712.548543	1421.193449	-363.393397	707.245296	1454.144039	-201.652801	653.820933	1318.397710	-217.248311	484.798887	1117.321550	33.163925	691.324000	942.555913	-63.094642	520.081217	1162.426338	-510.980398	690.736122	934.996495	-438.175993	110.684075	1291.556872	-228.026841	278.921113	1314.932240	-369.813339	286.269614	1296.571113	-79.039465	292.169194	1230.469257	-348.330129	291.343848	1244.368700	-98.796920	144.722670	1323.464777	-176.876038	158.435830	1332.747083	-284.159163	212.166560	1182.324427	-39.820321	191.023211	1168.569343	-402.092990	315.868917	1070.231505	-44.055432	385.136691	1016.913611	-58.112769	423.892788	942.790103	-63.706428	410.855618	1041.793672	-76.394750	493.517990	816.695820	-104.328846	475.763747	806.502303	-207.702966	420.625551	693.175946	-75.170438	391.930444	609.955134	-92.930635	329.512210	550.066314	-83.251250	401.847584	606.516608	-131.675818	250.927704	432.839427	-78.234771	174.769644	402.907936	-101.950830	459.008993	346.495871	-132.503114	382.349722	325.728764	-56.220002	234.050472	1052.451830	-414.492684	291.322297	985.587776	-419.505914	323.179710	999.920648	-409.543974	307.345588	898.055983	-423.101687	358.409041	729.398123	-402.883631	352.315476	711.398455	-307.920291	240.117463	637.522128	-418.689850	191.482874	569.152292	-399.230410	109.352074	531.173240	-401.167922	198.922976	566.808586	-356.999530	1.739532	453.147459	-395.766707	-70.905114	472.891464	-358.850445	118.292064	254.136628	-361.179084	42.155233	293.728275	-422.708177	-262.820844	976.428564	-235.557157	-82.462519	79.359958	-435.028620	-82.493454	79.189372	-37.518287	
1754	8.7700	715.414608	1387.815793	-47.731393	710.522848	1422.294124	-363.910502	705.534639	1455.278802	-202.276905	652.369907	1319.312843	-217.801555	484.972256	1117.521486	33.480412	691.246352	942.507848	-62.791881	519.486371	1162.327676	-511.117896	690.578622	934.907185	-438.122512	109.250036	1291.010633	-227.302626	277.189540	1315.719064	-368.765506	284.930858	1295.941718	-78.097588	290.909442	1231.372518	-347.528693	290.205625	1243.534681	-97.650522	143.218359	1322.823089	-175.893875	156.695265	1332.646199	-283.198149	210.305731	1180.693242	-39.547143	190.775231	1169.345652	-402.013273	312.189505	1066.342823	-43.114467	380.423910	1011.620721	-57.046821	417.497893	936.570055	-62.380878	406.002268	1036.706665	-73.321462	485.590176	809.659478	-102.716785	468.440963	799.459297	-205.969674	414.500301	684.896630	-73.624902	386.706366	601.406017	-92.054416	326.253585	540.018754	-82.359687	398.164393	597.776695	-129.912712	250.047241	421.453160	-77.721636	174.217392	389.985894	-102.469043	459.591067	336.736965	-131.588222	382.666280	314.538359	-56.648717	235.998896	1054.221613	-414.345093	294.526061	988.465324	-419.226121	325.937850	1003.336840	-409.092010	312.325379	901.333145	-423.028144	366.037728	730.857766	-398.591324	360.180760	715.144523	-308.381596	246.293760	643.258566	-419.064170	196.470971	575.647464	-399.585775	113.943899	539.611223	-401.780076	204.134408	573.130605	-357.531806	4.750272	463.649175	-395.961686	-67.031391	484.905985	-358.716420	117.664318	262.675290	-361.399674	42.244291	303.626697	-422.829032	-262.808230	976.423163	-235.535709	-82.459178	79.337406	-435.034640	-82.497858	79.194307	-37.499298	
1755	8.7750	714.646055	1388.558238	-48.623079	708.416565	1423.417101	-364.565795	703.808356	1456.432033	-202.921918	650.957085	1320.281380	-218.434582	485.078081	1117.704182	33.757425	691.202437	942.505778	-62.399855	518.876379	1162.121216	-511.097271	690.365166	934.740655	-437.996686	107.869157	1290.340565	-226.497669	275.417737	1316.468308	-367.850425	283.652179	1295.351259	-76.972694	289.604328	1231.938704	-346.388761	289.130962	1242.658377	-96.533535	141.732571	1322.083452	-174.892145	155.009742	1332.389231	-282.073825	208.483551	1178.869735	-39.072148	190.487032	1170.014938	-401.930125	308.394821	1062.127315	-42.263638	375.533308	1006.031448	-55.943702	410.696919	929.990590	-61.065549	401.755911	1030.295878	-71.782183	477.148433	802.353629	-100.937156	460.616687	792.057870	-203.981762	407.905936	676.399037	-72.050383	381.766531	592.493194	-90.462313	322.787126	529.617684	-81.644808	393.484073	589.156929	-128.629824	248.275335	410.398098	-76.529860	173.306143	378.314810	-101.649784	458.664989	326.480165	-132.642719	382.222086	303.453906	-56.698758	237.906735	1055.903869	-414.356883	297.696681	991.274338	-419.055557	328.815475	1006.809926	-409.055097	317.254956	904.510306	-422.877565	373.584740	735.103607	-399.326198	367.913273	719.165996	-308.908707	252.613028	649.095901	-419.413461	201.546258	582.501514	-400.015444	118.402887	547.726990	-402.001957	209.607509	579.545081	-358.065317	8.160326	474.104971	-396.122223	-63.268230	496.789369	-358.796778	117.725460	271.547834	-361.599890	42.926528	313.661930	-422.968134	-262.823319	976.414513	-235.509533	-82.464684	79.337957	-435.019975	-82.477402	79.167742	-37.495359	
